<svg xmlns="http://www.w3.org/2000/svg" width="920" height="420" viewBox="0 0 920 420">
  <rect width="920" height="420" fill="#f7f5ee"/>
  <text x="50" y="68" font-size="30" font-family="Georgia, serif" fill="#24313a">Deep Q-Network</text>
  <text x="50" y="104" font-size="20" font-family="Arial, sans-serif" fill="#59666e">使用神经网络近似 Q(s, a)，输入状态，输出各动作的 Q 值。</text>
  <rect x="90" y="145" width="170" height="140" rx="18" fill="#ffffff" stroke="#62727a" stroke-width="3"/><text x="140" y="220" font-size="24" font-family="Arial, sans-serif" fill="#59666e">State</text>
  <g stroke="#6c7a82" stroke-width="4" marker-end="url(#dq)"><defs><marker id="dq" markerWidth="10" markerHeight="10" refX="8" refY="3" orient="auto"><path d="M0,0 L0,6 L9,3 z" fill="#6c7a82"/></marker></defs><line x1="260" y1="215" x2="360" y2="215"/><line x1="620" y1="215" x2="760" y2="215"/></g>
  <rect x="360" y="120" width="260" height="190" rx="18" fill="#ffffff" stroke="#2f7a65" stroke-width="4"/>
  <circle cx="430" cy="170" r="12" fill="#2f7a65"/><circle cx="430" cy="220" r="12" fill="#2f7a65"/><circle cx="430" cy="270" r="12" fill="#2f7a65"/>
  <circle cx="490" cy="150" r="12" fill="#d9a44f"/><circle cx="490" cy="200" r="12" fill="#d9a44f"/><circle cx="490" cy="250" r="12" fill="#d9a44f"/><circle cx="490" cy="300" r="12" fill="#d9a44f"/>
  <circle cx="550" cy="180" r="12" fill="#d96c4f"/><circle cx="550" cy="240" r="12" fill="#d96c4f"/>
  <text x="405" y="335" font-size="18" font-family="Arial, sans-serif" fill="#59666e">Neural Network</text>
  <rect x="760" y="145" width="110" height="50" rx="12" fill="#ffffff" stroke="#d96c4f" stroke-width="3"/><text x="790" y="177" font-size="18" font-family="Arial, sans-serif" fill="#d96c4f">Q(a₁)</text>
  <rect x="760" y="210" width="110" height="50" rx="12" fill="#ffffff" stroke="#d96c4f" stroke-width="3"/><text x="790" y="242" font-size="18" font-family="Arial, sans-serif" fill="#d96c4f">Q(a₂)</text>
  <rect x="760" y="275" width="110" height="50" rx="12" fill="#ffffff" stroke="#d96c4f" stroke-width="3"/><text x="790" y="307" font-size="18" font-family="Arial, sans-serif" fill="#d96c4f">Q(a₃)</text>
</svg>
