<svg xmlns="http://www.w3.org/2000/svg" width="920" height="460" viewBox="0 0 920 460">
  <rect width="920" height="460" fill="#f7f5ee"/>
  <text x="50" y="68" font-size="30" font-family="Georgia, serif" fill="#24313a">Syntax Tree</text>
  <text x="50" y="104" font-size="20" font-family="Arial, sans-serif" fill="#59666e">句法树本地示意图，用于替代已失效的外部 GIF。</text>
  <g stroke="#6c7a82" stroke-width="4" fill="none">
    <line x1="460" y1="120" x2="270" y2="200"/><line x1="460" y1="120" x2="650" y2="200"/>
    <line x1="270" y1="200" x2="170" y2="290"/><line x1="270" y1="200" x2="370" y2="290"/>
    <line x1="650" y1="200" x2="550" y2="290"/><line x1="650" y1="200" x2="750" y2="290"/>
    <line x1="170" y1="290" x2="120" y2="370"/><line x1="170" y1="290" x2="220" y2="370"/>
    <line x1="370" y1="290" x2="320" y2="370"/><line x1="370" y1="290" x2="420" y2="370"/>
    <line x1="550" y1="290" x2="500" y2="370"/><line x1="550" y1="290" x2="600" y2="370"/>
    <line x1="750" y1="290" x2="700" y2="370"/><line x1="750" y1="290" x2="800" y2="370"/>
  </g>
  <g fill="#ffffff" stroke="#2f7a65" stroke-width="3" font-family="Arial, sans-serif" text-anchor="middle">
    <rect x="420" y="94" width="80" height="42" rx="12"/><text x="460" y="121" font-size="20" fill="#24313a">S</text>
    <rect x="230" y="178" width="80" height="42" rx="12"/><text x="270" y="205" font-size="20" fill="#24313a">NP</text>
    <rect x="610" y="178" width="80" height="42" rx="12"/><text x="650" y="205" font-size="20" fill="#24313a">VP</text>
    <rect x="130" y="268" width="80" height="42" rx="12"/><text x="170" y="295" font-size="20" fill="#24313a">Det</text>
    <rect x="330" y="268" width="80" height="42" rx="12"/><text x="370" y="295" font-size="20" fill="#24313a">N</text>
    <rect x="510" y="268" width="80" height="42" rx="12"/><text x="550" y="295" font-size="20" fill="#24313a">V</text>
    <rect x="710" y="268" width="80" height="42" rx="12"/><text x="750" y="295" font-size="20" fill="#24313a">NP</text>
    <rect x="85" y="348" width="70" height="40" rx="12"/><text x="120" y="374" font-size="18" fill="#24313a">the</text>
    <rect x="185" y="348" width="70" height="40" rx="12"/><text x="220" y="374" font-size="18" fill="#24313a">cat</text>
    <rect x="285" y="348" width="70" height="40" rx="12"/><text x="320" y="374" font-size="18" fill="#24313a">sat</text>
    <rect x="385" y="348" width="70" height="40" rx="12"/><text x="420" y="374" font-size="18" fill="#24313a">on</text>
    <rect x="465" y="348" width="70" height="40" rx="12"/><text x="500" y="374" font-size="18" fill="#24313a">the</text>
    <rect x="565" y="348" width="70" height="40" rx="12"/><text x="600" y="374" font-size="18" fill="#24313a">mat</text>
    <rect x="665" y="348" width="70" height="40" rx="12"/><text x="700" y="374" font-size="18" fill="#24313a">PP</text>
    <rect x="765" y="348" width="70" height="40" rx="12"/><text x="800" y="374" font-size="18" fill="#24313a">obj</text>
  </g>
</svg>
